<?xml version="1.0" encoding="iso-8859-1"?>
<!-- Generator: Adobe Illustrator 16.0.0, SVG Export Plug-In . SVG Version: 6.00 Build 0)  -->
<!DOCTYPE svg PUBLIC "-//W3C//DTD SVG 1.1//EN" "http://www.w3.org/Graphics/SVG/1.1/DTD/svg11.dtd">
<svg version="1.1" id="Capa_1" xmlns="http://www.w3.org/2000/svg" xmlns:xlink="http://www.w3.org/1999/xlink" x="0px" y="0px"
	  width="20px" height="20px" viewBox="0 0 43.43 43.43" style="enable-background:new 0 0 43.43 43.43;" xml:space="preserve"
	>
<g>
	<path d="M13.43,10.096l3.941,2.136v1.724c0,0.617,0.502,1.117,1.117,1.117c0.617,0,1.117-0.5,1.117-1.117v-0.513l2.071,1.123
		c0.168,0.09,0.352,0.135,0.533,0.135s0.363-0.045,0.529-0.135l8.252-4.469c0.361-0.194,0.586-0.571,0.586-0.981
		s-0.225-0.787-0.586-0.982l-8.25-4.469c-0.332-0.18-0.729-0.18-1.062,0l-8.25,4.469c-0.358,0.195-0.584,0.572-0.584,0.982
		C12.846,9.525,13.07,9.902,13.43,10.096z M22.211,12.313l-1.564-0.849l5.552-3.389l1.918,1.039L22.211,12.313z M22.213,5.917
		l1.715,0.929l-5.553,3.39l-2.066-1.12L22.213,5.917z M42.848,15.332L34.6,10.863c-0.334-0.181-0.732-0.181-1.066,0l-8.248,4.469
		c-0.359,0.195-0.586,0.572-0.586,0.982c0,0.409,0.227,0.787,0.586,0.981l3.941,2.136v1.724c0,0.617,0.5,1.117,1.117,1.117
		c0.615,0,1.115-0.5,1.115-1.117v-0.514l1.49,0.808v7.637l-2.301-1.246v-3.706c0-0.41-0.227-0.787-0.584-0.98l-8.25-4.468
		c-0.332-0.181-0.732-0.181-1.064,0l-8.25,4.468c-0.359,0.193-0.584,0.571-0.584,0.98v4.762l-0.873,0.465v-7.656l7.105-3.848
		c0.36-0.195,0.586-0.572,0.586-0.982s-0.226-0.787-0.586-0.982L9.9,11.424c-0.334-0.18-0.732-0.18-1.066,0l-8.25,4.468
		C0.225,16.087,0,16.465,0,16.874v10.177c0,0.41,0.225,0.787,0.584,0.982l8.25,4.469c0.166,0.09,0.348,0.135,0.531,0.135
		c0.182,0,0.36-0.043,0.524-0.131l2.025-1.079v2.888c0,0.408,0.225,0.785,0.584,0.98l8.248,4.469
		c0.165,0.092,0.35,0.137,0.532,0.137c0.184,0,0.365-0.045,0.531-0.137l8.252-4.469c0.359-0.195,0.584-0.572,0.584-0.98v-3.933
		l2.885,1.562c0.166,0.09,0.35,0.135,0.531,0.135c0.184,0,0.367-0.045,0.531-0.135l8.252-4.471c0.361-0.193,0.586-0.57,0.586-0.98
		V16.315C43.434,15.903,43.209,15.526,42.848,15.332z M9.365,20.069l-1.564-0.849l5.555-3.389l1.916,1.039L9.365,20.069z
		 M9.367,13.673l1.715,0.93l-5.553,3.389l-2.066-1.12L9.367,13.673z M2.235,18.748l2.293,1.242v1.723c0,0.617,0.5,1.117,1.117,1.117
		c0.615,0,1.115-0.5,1.115-1.117V21.2l2.049,1.108v7.638l-6.574-3.562V18.748z M21.281,27.33l-1.566-0.847l5.555-3.391l1.918,1.039
		L21.281,27.33z M21.281,20.936l1.717,0.929l-5.555,3.389l-2.066-1.12L21.281,20.936z M14.151,26.007l2.291,1.242v1.723
		c0,0.617,0.5,1.117,1.117,1.117c0.617,0,1.117-0.5,1.117-1.117v-0.513l1.49,0.808v7.638l-6.016-3.259L14.151,26.007L14.151,26.007z
		 M34.064,19.511l-1.562-0.848l5.555-3.389l1.916,1.039L34.064,19.511z M34.066,13.114l1.715,0.929l-5.553,3.389l-2.066-1.119
		L34.066,13.114z"/>
</g>
<g>
</g>
<g>
</g>
<g>
</g>
<g>
</g>
<g>
</g>
<g>
</g>
<g>
</g>
<g>
</g>
<g>
</g>
<g>
</g>
<g>
</g>
<g>
</g>
<g>
</g>
<g>
</g>
<g>
</g>
</svg>
